PathFileType	4	(X/Y/Z)	P:\Projects\LMB_grand_challenge_database\project_only\opensim\experimental_data\SixthCompetition/DM_ngait_og1_new.trc
DataRate	CameraRate	NumFrames	NumMarkers	Units	OrigDataRate	OrigDataStartFrame	OrigNumFrames
120	120	6	68	mm	120	238	381
Frame#	Time	Sternum			Neck			R_Shoulder			L_Shoulder			Xiphoid			Thoracic			R_Asis			L_Asis			R_Psis			L_Psis			Lumbar			R_Elbow			R_ElbowMedial			R_ShoulderAnterior			R_ShoulderPosterior			R_Wrist			R_Radius			R_Ulna			L_Elbow			L_ElbowMedial			L_ShoulderAnterior			L_ShoulderPosterior			L_Wrist			L_Ulna			L_Radius			L_Thigh_Superior			L_Thigh_Inferior			L_Thigh_Lateral			L_Knee_Lateral			L_Knee_Medial			L_Patella			L_Shank_Superior			L_Shank_Inferior			L_Shank_Lateral			L_Ankle_Lateral			L_Ankle_Medial			R_Thigh_Superior			R_Thigh_Inferior			R_Thigh_Lateral			R_Knee_Lateral			R_Knee_Medial			R_Patella			R_Shank_Superior			R_Shank_Inferior			R_Shank_Lateral			R_Ankle_Lateral			RankleMedial			R_Heel			R_Toe			R_Midfoot_Medial			R_Midfoot_Lateral			R_Hindfoot			R_Midfoot_Superior			R_ToeMedial			R_ToeLateral			L_Heel			L_Toe			L_Midfoot_Medial			L_Midfoot_Lateral			L_Hindfoot			L_Midfoot_Superior			L_ToeMedial			L_ToeLateral			Oglobal			Sacral			Xglobal			Yglobal			Zglobal			
		X1	Y1	Z1	X2	Y2	Z2	X3	Y3	Z3	X4	Y4	Z4	X5	Y5	Z5	X6	Y6	Z6	X7	Y7	Z7	X8	Y8	Z8	X9	Y9	Z9	X10	Y10	Z10	X11	Y11	Z11	X12	Y12	Z12	X13	Y13	Z13	X14	Y14	Z14	X15	Y15	Z15	X16	Y16	Z16	X17	Y17	Z17	X18	Y18	Z18	X19	Y19	Z19	X20	Y20	Z20	X21	Y21	Z21	X22	Y22	Z22	X23	Y23	Z23	X24	Y24	Z24	X25	Y25	Z25	X26	Y26	Z26	X27	Y27	Z27	X28	Y28	Z28	X29	Y29	Z29	X30	Y30	Z30	X31	Y31	Z31	X32	Y32	Z32	X33	Y33	Z33	X34	Y34	Z34	X35	Y35	Z35	X36	Y36	Z36	X37	Y37	Z37	X38	Y38	Z38	X39	Y39	Z39	X40	Y40	Z40	X41	Y41	Z41	X42	Y42	Z42	X43	Y43	Z43	X44	Y44	Z44	X45	Y45	Z45	X46	Y46	Z46	X47	Y47	Z47	X48	Y48	Z48	X49	Y49	Z49	X50	Y50	Z50	X51	Y51	Z51	X52	Y52	Z52	X53	Y53	Z53	X54	Y54	Z54	X55	Y55	Z55	X56	Y56	Z56	X57	Y57	Z57	X58	Y58	Z58	X59	Y59	Z59	X60	Y60	Z60	X61	Y61	Z61	X62	Y62	Z62	X63	Y63	Z63	X64	Y64	Z64	X65	Y65	Z65	X66	Y66	Z66	X67	Y67	Z67	X68	Y68	Z68	

239	2.733333	556.181	1372.83	174.55	406.331	1464.65	195.934	514.734	1395.44	351.769	451.362	1427.47	13.8757	569.827	1209.27	171.783	307.944	1275.6	193.167	497.771	992.335	319.102	488.067	979.66	40.5734	291.973	1028.07	217.262	288.741	1024.3	138.945	292.036	1075.9	176.875	482.372	1084.1	456.117	-0	0	0	-0	0	0	-0	0	0	530.272	802.747	439.851	520.106	817.174	395.434	489.88	818.107	460.872	435.394	1088.3	-79.46810000000001	-0	0	0	-0	0	0	-0	0	0	529.8390000000001	838.093	-58.0185	485.419	840.5650000000001	-77.5337	520.824	853.077	-13.1393	-0	0	0	554.489	606.836	29.1439	575.7380000000001	706.401	53.9498	-0	0	0	-0	0	0	609.133	506.39	76.17529999999999	499.443	470.41	32.0043	311.928	281.465	60.4994	440.496	345.903	111.691	-0	0	0	-0	0	0	430.955	801.568	337.96	451.888	589.093	300.839	512.995	719.269	318.341	-0	0	0	-0	0	0	530.271	506.489	225.886	408.406	396.171	310.891	388.059	189.888	296.695	465.107	311.97	226.306	-0	0	0	-0	0	0	293.241	61.7811	241.911	594.26	53.813	256.81	516.8680000000001	30.6787	199.019	501.756	29.5109	315.306	391.842	27.9854	298.758	455.656	118.71	250.593	561.419	40.7804	211.891	551.106	40.8407	303.009	188.821	231.753	131.573	418.039	42.7198	99.1067	348.78	74.3676	160.037	321.819	78.4238	48.849	237.857	140.679	68.7324	351.021	173.866	102.569	382.15	51.0867	146.399	369.954	49.6214	52.422	-0	0	0	290.357	1026.18	178.103	-200	0	0	-0	0	200	-0	200	0	
240	2.741667	565.218	1373.62	173.322	415.59	1465.5	195.48	524.756	1396.7	350.656	459.019	1428.11	13.0044	578.603	1209.89	170.599	316.788	1276.65	193.393	506.673	993.216	318.382	495.975	980.336	39.9423	300.581	1029.3	217.274	297.083	1025.72	138.839	300.675	1077.22	176.817	493.522	1085.34	455.685	-0	0	0	-0	0	0	-0	0	0	540.549	803.775	439.68	530.269	817.8339999999999	395.426	500.585	819.556	461.223	437.186	1089.19	-80.4097	-0	0	0	-0	0	0	-0	0	0	529.375	837.96	-60.679	484.814	841.1319999999999	-79.4529	521.372	853.241	-15.6873	-0	0	0	566.692	610.035	29.0258	586.971	710.0309999999999	53.2365	-0	0	0	-0	0	0	622.833	510.761	76.352	514.991	471.598	31.682	334.633	275.286	59.0474	460.11	344.723	110.974	-0	0	0	-0	0	0	436.979	803.03	338.63	455.198	589.542	300.707	518.4829999999999	718.829	317.628	-0	0	0	-0	0	0	532.003	505.872	225.915	409.85	396.333	310.824	388.564	190.052	296.609	466.188	311.505	227.784	-0	0	0	-0	0	0	292.146	61.3496	241.95	594.28	53.7517	256.793	515.859	29.6615	199.942	500.458	29.7255	316.197	391.729	28.4999	299.449	455.761	118.683	250.498	561.465	40.7144	211.866	551.126	40.783	302.98	212.491	220.059	128.495	451.682	43.0111	100.507	381.944	73.6854	160.561	355.303	73.9003	49.2218	266.832	130.782	67.35980000000001	378.913	171.791	101.059	414.748	49.5884	147.523	403.867	47.124	53.0427	-0	0	0	298.832	1027.51	178.056	-200	0	0	-0	0	200	-0	200	0	
241	2.75	574.207	1374.32	172.01	424.894	1466.21	194.91	535.061	1397.71	349.584	466.827	1428.97	11.9405	587.5170000000001	1210.31	169.707	326.054	1277.58	193.391	515.343	994.0119999999999	317.712	503.945	980.893	39.314	309.099	1030.47	217.055	305.418	1027	138.605	309.236	1078.44	176.558	505.124	1086.47	455.038	-0	0	0	-0	0	0	-0	0	0	550.986	804.473	439.577	540.152	818.747	395.333	510.957	820.717	461.451	438.988	1090.08	-81.2264	-0	0	0	-0	0	0	-0	0	0	529.117	837.804	-63.3641	484.399	841.401	-81.23350000000001	522.294	853.3049999999999	-18.312	-0	0	0	578.3869999999999	613.105	29.1804	597.588	713.168	52.9035	-0	0	0	-0	0	0	636.308	515.1660000000001	76.28019999999999	530.456	471.245	32.1797	357.705	268.701	57.4973	479.931	343.695	110.368	-0	0	0	-0	0	0	443.819	804.046	338.786	458.375	589.7859999999999	300.758	524.038	718.395	317.107	-0	0	0	-0	0	0	533.702	505.137	225.789	411.374	396.514	310.698	388.987	190.342	296.565	467.248	311.493	227.871	-0	0	0	-0	0	0	292.629	61.7267	241.94	594.311	53.6373	256.783	516.279	29.6538	199.894	500.929	29.9534	316.155	391.818	28.6151	299.516	456.104	118.774	250.3	560.8049999999999	39.9406	211.709	551.138	40.7371	302.978	237.231	207.541	125.666	485.351	43.1447	101.635	413.826	70.3445	159.712	388.529	69.2337	48.065	296.576	121.537	65.3098	406.069	168.251	100.229	447.62	48.4122	148.107	438.001	44.6654	53.6886	-0	0	0	307.259	1028.74	177.83	-200	0	0	-0	0	200	-0	200	0	
242	2.758333	583.404	1374.74	170.768	434.362	1466.94	194.357	545.22	1398.88	348.568	474.719	1429.44	11.0054	596.201	1210.62	168.475	335.074	1278.4	193.532	523.948	994.3339999999999	316.874	512.001	981.711	38.6205	317.578	1031.4	216.699	313.783	1028.09	138.398	317.76	1079.45	176.324	516.566	1087.41	454.444	-0	0	0	-0	0	0	-0	0	0	561.091	805.25	439.125	549.806	819.789	395.155	521.619	822.05	461.742	440.947	1090.91	-81.8759	-0	0	0	-0	0	0	-0	0	0	528.6950000000001	837.667	-66.09480000000001	483.724	841.831	-83.1434	523.312	853.369	-20.8932	-0	0	0	589.806	615.808	29.5817	607.904	716.062	52.4343	-0	0	0	-0	0	0	649.22	519.638	76.5547	544.9589999999999	472.378	32.1568	381.306	262.118	55.6697	499.46	342.621	109.978	-0	0	0	-0	0	0	451.373	804.686	338.452	461.619	590.013	300.573	529.321	717.907	316.671	-0	0	0	-0	0	0	535.7569999999999	504.451	225.763	412.862	396.663	310.771	389.561	190.505	296.586	468.338	311.413	227.793	-0	0	0	-0	0	0	292.78	61.9275	241.737	594.175	53.8079	257.08	516.436	29.6189	199.901	500.983	29.9753	316.149	391.724	28.5736	299.489	456.317	118.821	250.223	561.633	40.5503	211.738	551.176	40.6743	302.982	262.428	195.781	122.144	519.044	43.6082	102.639	444.851	66.9546	158.106	421.488	65.58759999999999	46.0416	328.049	112.437	61.5376	434.05	164.758	99.1729	480.353	47.1416	148.43	472.252	42.4057	53.9336	-0	0	0	315.68	1029.74	177.549	-200	0	0	-0	0	200	-0	200	0	
243	2.766667	592.433	1375.01	169.259	443.752	1467.26	193.715	555.232	1399.46	347.178	482.63	1429.97	9.883559999999999	605.163	1210.71	167.321	344.34	1279.13	193.433	532.77	994.556	315.78	519.888	982.077	37.8052	326.149	1032.3	216.383	322.117	1029.18	138.119	326.426	1080.43	176.049	528.033	1088.53	453.604	-0	0	0	-0	0	0	-0	0	0	571.103	806.338	437.814	559.676	820.2809999999999	394.877	532.1849999999999	822.967	461.945	442.985	1091.77	-82.47880000000001	-0	0	0	-0	0	0	-0	0	0	528.276	837.378	-68.9139	483.185	842.177	-84.85429999999999	524.1660000000001	853.539	-23.7016	-0	0	0	600.756	618.545	30.3151	617.867	718.675	52.4216	-0	0	0	-0	0	0	661.963	523.785	75.8189	559.331	474.701	30.8769	405.194	255.451	53.6685	519.191	341.213	109.07	-0	0	0	-0	0	0	459.184	804.894	337.655	464.799	590.323	300.573	534.279	717.322	316.123	-0	0	0	-0	0	0	538.052	504.063	225.997	414.511	396.83	310.843	390.078	190.694	296.629	469.49	311.523	228.005	-0	0	0	-0	0	0	292.706	61.9442	241.684	594.294	53.5177	256.736	516.373	29.458	200.045	500.794	29.6665	316.276	391.796	28.6004	299.422	456.015	118.556	250.412	561.87	40.6398	211.779	551.2140000000001	40.6614	303.018	288.638	183.522	118.8	552.703	44.0821	103.128	476.323	62.7123	155.499	454.708	62.1598	43.0774	357.714	105.595	58.8355	461.818	160.896	98.00239999999999	513.477	46.2935	148.728	506.687	40.5401	53.8948	-0	0	0	324.133	1030.74	177.251	-200	0	0	-0	0	200	-0	200	0	
244	2.775	601.693	1375.21	167.825	453.234	1467.63	193.077	565.676	1400.08	345.958	490.823	1430.37	8.72021	614.014	1210.78	166.191	353.444	1279.79	193.357	541.28	995.076	315.26	527.684	982.234	37.09	334.533	1033.08	216.235	330.317	1030.03	137.864	334.797	1081.24	175.787	539.4690000000001	1089.35	452.763	-0	0	0	-0	0	0	-0	0	0	581.179	807.177	437.3	569.056	820.824	394.478	542.981	823.691	462.037	445.271	1092.51	-82.80549999999999	-0	0	0	-0	0	0	-0	0	0	527.7190000000001	836.89	-71.76949999999999	482.522	842.451	-86.5611	525.418	853.23	-26.5394	-0	0	0	611.237	620.773	30.8141	627.528	721.1799999999999	52.2947	-0	0	0	-0	0	0	673.915	526.777	76.4423	573.284	475.785	30.6463	429.397	248.527	51.7383	538.619	339.439	108.746	-0	0	0	-0	0	0	466.187	805.192	336.959	468.117	590.4349999999999	300.527	539.306	716.605	315.743	-0	0	0	-0	0	0	539.859	503.32	226.084	415.696	396.96	310.861	390.628	190.895	296.624	470.794	311.719	228.103	-0	0	0	-0	0	0	292.665	61.955	241.796	594.352	53.3548	256.811	516.288	29.3353	200.028	500.773	29.5284	316.267	391.781	28.5825	299.442	455.969	118.445	250.445	561.809	40.5172	211.764	551.205	40.5507	302.944	315.616	171.113	115.567	586.518	45.1777	102.925	509.192	62.0349	157.969	488.525	56.0529	45.5269	389.505	94.3488	58.7248	489.763	157.055	96.6819	547.016	45.0755	148.808	541.229	39.0664	53.2503	-0	0	0	332.425	1031.55	177.049	-200	0	0	-0	0	200	-0	200	0	
